{
  "accessors": [
    {
      "bufferView": 2,
      "componentType": 5126,
      "count": 65532,
      "max": [
        0.5771710276603699,
        0.9514949917793274,
        0.18540899455547333
      ],
      "min": [
        -0.5566110014915466,
        -0.95203697681427,
        -0.17162999510765076
      ],
      "type": "VEC3"
    },
    {
      "bufferView": 2,
      "byteOffset": 786384,
      "componentType": 5126,
      "count": 65532,
      "max": [
        0.9999874830245972,
        0.9999490976333618,
        0.9999094009399414
      ],
      "min": [
        -0.9999996423721313,
        -0.9999942779541016,
        -0.999984622001648
      ],
      "type": "VEC3"
    },
    {
      "bufferView": 3,
      "componentType": 5126,
      "count": 65532,
      "max": [
        0.9999977946281433,
        0.9999953508377075,
        0.9999852180480957,
        1.0
      ],
      "min": [
        -0.9999967813491821,
        -0.9999856352806091,
        -0.9999038577079773,
        -1.0
      ],
      "type": "VEC4"
    },
    {
      "bufferView": 1,
      "componentType": 5126,
      "count": 65532,
      "max": [
        0.9963930249214172,
        0.9959399700164795
      ],
      "min": [
        0.0030529999639838934,
        0.00109100341796875
      ],
      "type": "VEC2"
    },
    {
      "bufferView": 1,
      "byteOffset": 524256,
      "componentType": 5126,
      "count": 65532,
      "max": [
        0.9963930249214172,
        0.9959399700164795
      ],
      "min": [
        0.0030529999639838934,
        0.00109100341796875
      ],
      "type": "VEC2"
    },
    {
      "bufferView": 1,
      "byteOffset": 1048512,
      "componentType": 5126,
      "count": 65532,
      "max": [
        0.9963930249214172,
        0.9959399700164795
      ],
      "min": [
        0.0030529999639838934,
        0.00109100341796875
      ],
      "type": "VEC2"
    },
    {
      "bufferView": 1,
      "byteOffset": 1572768,
      "componentType": 5126,
      "count": 65532,
      "max": [
        0.9963930249214172,
        0.9959399700164795
      ],
      "min": [
        0.0030529999639838934,
        0.00109100341796875
      ],
      "type": "VEC2"
    },
    {
      "bufferView": 0,
      "componentType": 5125,
      "count": 340974,
      "type": "SCALAR"
    },
    {
      "bufferView": 2,
      "byteOffset": 1572768,
      "componentType": 5126,
      "count": 65532,
      "max": [
        0.5374370217323303,
        0.9482449889183044,
        0.18464000523090363
      ],
      "min": [
        -0.5601500272750854,
        -0.9519870281219482,
        -0.16103999316692352
      ],
      "type": "VEC3"
    },
    {
      "bufferView": 2,
      "byteOffset": 2359152,
      "componentType": 5126,
      "count": 65532,
      "max": [
        0.9999616146087646,
        0.9998458027839661,
        0.9999878406524658
      ],
      "min": [
        -0.9999938011169434,
        -0.9999916553497314,
        -0.9999966621398926
      ],
      "type": "VEC3"
    },
    {
      "bufferView": 3,
      "byteOffset": 1048512,
      "componentType": 5126,
      "count": 65532,
      "max": [
        0.9999866485595703,
        0.9999526739120483,
        0.999992311000824,
        1.0
      ],
      "min": [
        -0.9999861717224121,
        -0.9999588131904602,
        -0.9999802112579346,
        -1.0
      ],
      "type": "VEC4"
    },
    {
      "bufferView": 1,
      "byteOffset": 2097024,
      "componentType": 5126,
      "count": 65532,
      "max": [
        0.9963600039482117,
        0.9998739957809448
      ],
      "min": [
        0.0031870000530034304,
        0.0050820112228393555
      ],
      "type": "VEC2"
    },
    {
      "bufferView": 1,
      "byteOffset": 2621280,
      "componentType": 5126,
      "count": 65532,
      "max": [
        0.9963600039482117,
        0.9998739957809448
      ],
      "min": [
        0.0031870000530034304,
        0.0050820112228393555
      ],
      "type": "VEC2"
    },
    {
      "bufferView": 1,
      "byteOffset": 3145536,
      "componentType": 5126,
      "count": 65532,
      "max": [
        0.9963600039482117,
        0.9998739957809448
      ],
      "min": [
        0.0031870000530034304,
        0.0050820112228393555
      ],
      "type": "VEC2"
    },
    {
      "bufferView": 1,
      "byteOffset": 3669792,
      "componentType": 5126,
      "count": 65532,
      "max": [
        0.9963600039482117,
        0.9998739957809448
      ],
      "min": [
        0.0031870000530034304,
        0.0050820112228393555
      ],
      "type": "VEC2"
    },
    {
      "bufferView": 0,
      "byteOffset": 1363896,
      "componentType": 5125,
      "count": 339261,
      "type": "SCALAR"
    },
    {
      "bufferView": 2,
      "byteOffset": 3145536,
      "componentType": 5126,
      "count": 65532,
      "max": [
        0.5771710276603699,
        0.9502189755439758,
        0.18512199819087982
      ],
      "min": [
        -0.578777015209198,
        -0.9458379745483398,
        -0.1612659990787506
      ],
      "type": "VEC3"
    },
    {
      "bufferView": 2,
      "byteOffset": 3931920,
      "componentType": 5126,
      "count": 65532,
      "max": [
        0.9999920129776001,
        0.9999996423721313,
        0.9999951124191284
      ],
      "min": [
        -0.9997773766517639,
        -0.9999939203262329,
        -0.9999994039535522
      ],
      "type": "VEC3"
    },
    {
      "bufferView": 3,
      "byteOffset": 2097024,
      "componentType": 5126,
      "count": 65532,
      "max": [
        0.9999916553497314,
        0.9999631643295288,
        0.9999772310256958,
        1.0
      ],
      "min": [
        -0.9999967813491821,
        -0.9999843835830688,
        -0.9998874068260193,
        -1.0
      ],
      "type": "VEC4"
    },
    {
      "bufferView": 1,
      "byteOffset": 4194048,
      "componentType": 5126,
      "count": 65532,
      "max": [
        0.9999949932098389,
        0.9999099969863892
      ],
      "min": [
        3.400000059627928e-05,
        0.0010309815406799316
      ],
      "type": "VEC2"
    },
    {
      "bufferView": 1,
      "byteOffset": 4718304,
      "componentType": 5126,
      "count": 65532,
      "max": [
        0.9999949932098389,
        0.9999099969863892
      ],
      "min": [
        3.400000059627928e-05,
        0.0010309815406799316
      ],
      "type": "VEC2"
    },
    {
      "bufferView": 1,
      "byteOffset": 5242560,
      "componentType": 5126,
      "count": 65532,
      "max": [
        0.9999949932098389,
        0.9999099969863892
      ],
      "min": [
        3.400000059627928e-05,
        0.0010309815406799316
      ],
      "type": "VEC2"
    },
    {
      "bufferView": 1,
      "byteOffset": 5766816,
      "componentType": 5126,
      "count": 65532,
      "max": [
        0.9999949932098389,
        0.9999099969863892
      ],
      "min": [
        3.400000059627928e-05,
        0.0010309815406799316
      ],
      "type": "VEC2"
    },
    {
      "bufferView": 0,
      "byteOffset": 2720940,
      "componentType": 5125,
      "count": 328113,
      "type": "SCALAR"
    },
    {
      "bufferView": 2,
      "byteOffset": 4718304,
      "componentType": 5126,
      "count": 65532,
      "max": [
        0.5636739730834961,
        0.9510570168495178,
        0.08206599950790405
      ],
      "min": [
        -0.5701239705085754,
        -0.9519720077514648,
        -0.1575479954481125
      ],
      "type": "VEC3"
    },
    {
      "bufferView": 2,
      "byteOffset": 5504688,
      "componentType": 5126,
      "count": 65532,
      "max": [
        0.999994158744812,
        0.9999490976333618,
        0.9999552965164185
      ],
      "min": [
        -0.9999814033508301,
        -0.9999762177467346,
        -0.9999570846557617
      ],
      "type": "VEC3"
    },
    {
      "bufferView": 3,
      "byteOffset": 3145536,
      "componentType": 5126,
      "count": 65532,
      "max": [
        0.9998178482055664,
        0.9999864101409912,
        0.9999874830245972,
        1.0
      ],
      "min": [
        -0.9999383687973022,
        -0.9999867081642151,
        -0.9999933242797852,
        -1.0
      ],
      "type": "VEC4"
    },
    {
      "bufferView": 1,
      "byteOffset": 6291072,
      "componentType": 5126,
      "count": 65532,
      "max": [
        0.9999799728393555,
        0.9999790191650391
      ],
      "min": [
        2.499999936844688e-05,
        0.001212000846862793
      ],
      "type": "VEC2"
    },
    {
      "bufferView": 1,
      "byteOffset": 6815328,
      "componentType": 5126,
      "count": 65532,
      "max": [
        0.9999799728393555,
        0.9999790191650391
      ],
      "min": [
        2.499999936844688e-05,
        0.001212000846862793
      ],
      "type": "VEC2"
    },
    {
      "bufferView": 1,
      "byteOffset": 7339584,
      "componentType": 5126,
      "count": 65532,
      "max": [
        0.9999799728393555,
        0.9999790191650391
      ],
      "min": [
        2.499999936844688e-05,
        0.001212000846862793
      ],
      "type": "VEC2"
    },
    {
      "bufferView": 1,
      "byteOffset": 7863840,
      "componentType": 5126,
      "count": 65532,
      "max": [
        0.9999799728393555,
        0.9999790191650391
      ],
      "min": [
        2.499999936844688e-05,
        0.001212000846862793
      ],
      "type": "VEC2"
    },
    {
      "bufferView": 0,
      "byteOffset": 4033392,
      "componentType": 5125,
      "count": 310332,
      "type": "SCALAR"
    },
    {
      "bufferView": 2,
      "byteOffset": 6291072,
      "componentType": 5126,
      "count": 41476,
      "max": [
        0.4602780044078827,
        0.9483630061149597,
        -0.009025000035762787
      ],
      "min": [
        -0.4584600031375885,
        -0.9519919753074646,
        -0.17417499423027039
      ],
      "type": "VEC3"
    },
    {
      "bufferView": 2,
      "byteOffset": 6788784,
      "componentType": 5126,
      "count": 41476,
      "max": [
        1.0,
        0.9999955892562866,
        0.9999750256538391
      ],
      "min": [
        -0.9999979734420776,
        -0.9999916553497314,
        -0.9999903440475464
      ],
      "type": "VEC3"
    },
    {
      "bufferView": 3,
      "byteOffset": 4194048,
      "componentType": 5126,
      "count": 41476,
      "max": [
        0.9999723434448242,
        0.9999950528144836,
        0.999992311000824,
        1.0
      ],
      "min": [
        -0.9999920725822449,
        -0.9999701976776123,
        -0.9999412298202515,
        -1.0
      ],
      "type": "VEC4"
    },
    {
      "bufferView": 1,
      "byteOffset": 8388096,
      "componentType": 5126,
      "count": 41476,
      "max": [
        0.9999989867210388,
        0.9999489784240723
      ],
      "min": [
        0.0,
        0.0011590123176574707
      ],
      "type": "VEC2"
    },
    {
      "bufferView": 1,
      "byteOffset": 8719904,
      "componentType": 5126,
      "count": 41476,
      "max": [
        0.9999989867210388,
        0.9999489784240723
      ],
      "min": [
        0.0,
        0.0011590123176574707
      ],
      "type": "VEC2"
    },
    {
      "bufferView": 1,
      "byteOffset": 9051712,
      "componentType": 5126,
      "count": 41476,
      "max": [
        0.9999989867210388,
        0.9999489784240723
      ],
      "min": [
        0.0,
        0.0011590123176574707
      ],
      "type": "VEC2"
    },
    {
      "bufferView": 1,
      "byteOffset": 9383520,
      "componentType": 5126,
      "count": 41476,
      "max": [
        0.9999989867210388,
        0.9999489784240723
      ],
      "min": [
        0.0,
        0.0011590123176574707
      ],
      "type": "VEC2"
    },
    {
      "bufferView": 0,
      "byteOffset": 5274720,
      "componentType": 5125,
      "count": 167751,
      "type": "SCALAR"
    }
  ],
  "asset": {
    "extras": {
      "author": "evitedgroup (https://sketchfab.com/evitedgroup)",
      "license": "CC-BY-4.0 (http://creativecommons.org/licenses/by/4.0/)",
      "source": "https://sketchfab.com/3d-models/avatar-raul-cushpa-inchiglema-88cae14539bd4052b0847f092919a0fd",
      "title": "Avatar Raúl Cushpa Inchiglema"
    },
    "generator": "Sketchfab-16.74.0",
    "version": "2.0"
  },
  "bufferViews": [
    {
      "buffer": 0,
      "byteLength": 5945724,
      "name": "floatBufferViews",
      "target": 34963
    },
    {
      "buffer": 0,
      "byteLength": 9715328,
      "byteOffset": 5945724,
      "byteStride": 8,
      "name": "floatBufferViews",
      "target": 34962
    },
    {
      "buffer": 0,
      "byteLength": 7286496,
      "byteOffset": 15661052,
      "byteStride": 12,
      "name": "floatBufferViews",
      "target": 34962
    },
    {
      "buffer": 0,
      "byteLength": 4857664,
      "byteOffset": 22947548,
      "byteStride": 16,
      "name": "floatBufferViews",
      "target": 34962
    }
  ],
  "buffers": [
    {
      "byteLength": 27805212,
      "uri": "scene.bin"
    }
  ],
  "images": [
    {
      "uri": "textures/material_0_baseColor.jpeg"
    },
    {
      "uri": "textures/material_0_metallicRoughness.png"
    },
    {
      "uri": "textures/material_0_normal.jpeg"
    }
  ],
  "materials": [
    {
      "doubleSided": true,
      "name": "material_0",
      "normalTexture": {
        "index": 2,
        "texCoord": 2
      },
      "pbrMetallicRoughness": {
        "baseColorTexture": {
          "index": 0
        },
        "metallicRoughnessTexture": {
          "index": 1,
          "texCoord": 1
        }
      }
    }
  ],
  "meshes": [
    {
      "name": "Object_0",
      "primitives": [
        {
          "attributes": {
            "NORMAL": 1,
            "POSITION": 0,
            "TANGENT": 2,
            "TEXCOORD_0": 3,
            "TEXCOORD_1": 4,
            "TEXCOORD_2": 5,
            "TEXCOORD_3": 6
          },
          "indices": 7,
          "material": 0,
          "mode": 4
        }
      ]
    },
    {
      "name": "Object_1",
      "primitives": [
        {
          "attributes": {
            "NORMAL": 9,
            "POSITION": 8,
            "TANGENT": 10,
            "TEXCOORD_0": 11,
            "TEXCOORD_1": 12,
            "TEXCOORD_2": 13,
            "TEXCOORD_3": 14
          },
          "indices": 15,
          "material": 0,
          "mode": 4
        }
      ]
    },
    {
      "name": "Object_2",
      "primitives": [
        {
          "attributes": {
            "NORMAL": 17,
            "POSITION": 16,
            "TANGENT": 18,
            "TEXCOORD_0": 19,
            "TEXCOORD_1": 20,
            "TEXCOORD_2": 21,
            "TEXCOORD_3": 22
          },
          "indices": 23,
          "material": 0,
          "mode": 4
        }
      ]
    },
    {
      "name": "Object_3",
      "primitives": [
        {
          "attributes": {
            "NORMAL": 25,
            "POSITION": 24,
            "TANGENT": 26,
            "TEXCOORD_0": 27,
            "TEXCOORD_1": 28,
            "TEXCOORD_2": 29,
            "TEXCOORD_3": 30
          },
          "indices": 31,
          "material": 0,
          "mode": 4
        }
      ]
    },
    {
      "name": "Object_4",
      "primitives": [
        {
          "attributes": {
            "NORMAL": 33,
            "POSITION": 32,
            "TANGENT": 34,
            "TEXCOORD_0": 35,
            "TEXCOORD_1": 36,
            "TEXCOORD_2": 37,
            "TEXCOORD_3": 38
          },
          "indices": 39,
          "material": 0,
          "mode": 4
        }
      ]
    }
  ],
  "nodes": [
    {
      "children": [
        1
      ],
      "matrix": [
        1.0,
        0.0,
        0.0,
        0.0,
        0.0,
        2.220446049250313e-16,
        -1.0,
        0.0,
        0.0,
        1.0,
        2.220446049250313e-16,
        0.0,
        0.0,
        0.0,
        0.0,
        1.0
      ],
      "name": "Sketchfab_model"
    },
    {
      "children": [
        2
      ],
      "name": "root"
    },
    {
      "children": [
        3
      ],
      "matrix": [
        1.0,
        0.0,
        0.0,
        0.0,
        0.0,
        2.220446049250313e-16,
        1.0,
        0.0,
        0.0,
        -1.0,
        2.220446049250313e-16,
        0.0,
        0.0,
        0.0,
        0.0,
        1.0
      ],
      "name": "GLTF_SceneRootNode"
    },
    {
      "children": [
        4,
        5,
        6,
        7,
        8
      ],
      "name": "_0"
    },
    {
      "mesh": 0,
      "name": "Object_4"
    },
    {
      "mesh": 1,
      "name": "Object_5"
    },
    {
      "mesh": 2,
      "name": "Object_6"
    },
    {
      "mesh": 3,
      "name": "Object_7"
    },
    {
      "mesh": 4,
      "name": "Object_8"
    }
  ],
  "samplers": [
    {
      "magFilter": 9729,
      "minFilter": 9987,
      "wrapS": 10497,
      "wrapT": 10497
    }
  ],
  "scene": 0,
  "scenes": [
    {
      "name": "Sketchfab_Scene",
      "nodes": [
        0
      ]
    }
  ],
  "textures": [
    {
      "sampler": 0,
      "source": 0
    },
    {
      "sampler": 0,
      "source": 1
    },
    {
      "sampler": 0,
      "source": 2
    }
  ]
}
